<?xml version="1.0" standalone="no"?>
<!DOCTYPE svg PUBLIC "-//W3C//DTD SVG 20010904//EN"
 "http://www.w3.org/TR/2001/REC-SVG-20010904/DTD/svg10.dtd">
<svg version="1.0" xmlns="http://www.w3.org/2000/svg"
 width="1779.000000pt" height="1779.000000pt" viewBox="0 0 1779.000000 1779.000000"
 preserveAspectRatio="xMidYMid meet">
<metadata>
Created by potrace 1.14, written by Peter Selinger 2001-2017
</metadata>
<g transform="translate(0.000000,1779.000000) scale(0.100000,-0.100000)"
fill="#000000" stroke="none">
<path d="M8595 17669 c-346 -13 -725 -47 -1000 -90 -142 -22 -413 -70 -500
-89 -197 -43 -355 -80 -445 -105 -52 -14 -117 -32 -145 -40 -122 -32 -172 -48
-370 -113 -302 -100 -582 -207 -790 -302 -33 -15 -85 -38 -115 -50 -91 -38
-505 -251 -670 -345 -488 -276 -976 -616 -1344 -934 -55 -47 -133 -114 -173
-149 -263 -226 -727 -710 -955 -997 -365 -459 -597 -798 -838 -1225 -90 -159
-293 -553 -337 -655 -12 -27 -45 -102 -73 -165 -115 -260 -314 -803 -375
-1025 -8 -27 -30 -108 -50 -180 -297 -1061 -383 -2267 -241 -3395 179 -1424
700 -2775 1521 -3945 383 -544 734 -947 1225 -1404 482 -448 1044 -861 1610
-1183 278 -158 827 -427 1013 -494 20 -8 101 -39 180 -70 162 -64 556 -196
727 -244 63 -18 135 -38 160 -45 128 -36 115 -33 450 -110 755 -175 1787 -233
2665 -150 388 37 704 87 1025 162 341 79 350 82 549 138 183 52 539 171 731
245 74 29 151 58 170 65 19 7 102 43 183 79 82 36 151 66 154 66 17 0 529 264
685 353 1127 644 2088 1517 2828 2568 140 198 348 524 435 679 32 58 73 130
91 160 57 99 250 491 334 680 390 881 635 1845 716 2815 72 870 3 1856 -186
2660 -5 22 -19 81 -31 130 -133 575 -395 1288 -690 1878 -115 229 -316 582
-456 799 -540 839 -1197 1559 -1988 2179 -523 411 -1196 814 -1825 1094 -480
214 -1122 429 -1585 531 -66 14 -147 33 -180 40 -33 8 -112 23 -175 34 -63 11
-164 29 -225 40 -165 29 -476 67 -695 84 -171 14 -719 38 -760 34 -8 0 -114
-5 -235 -9z m605 -739 c543 -25 972 -82 1460 -193 907 -207 1726 -547 2530
-1052 637 -400 1274 -948 1760 -1515 221 -257 369 -450 595 -775 213 -305 506
-838 694 -1260 139 -314 296 -757 395 -1115 78 -282 174 -743 206 -985 60
-469 73 -675 73 -1135 0 -559 -28 -887 -119 -1410 -155 -888 -481 -1788 -929
-2570 -728 -1268 -1735 -2275 -3010 -3008 -179 -102 -483 -260 -620 -319 -27
-12 -72 -32 -100 -44 -27 -12 -74 -32 -103 -45 -116 -53 -448 -176 -652 -242
-239 -79 -393 -122 -645 -182 -93 -22 -186 -44 -205 -49 -19 -5 -74 -17 -122
-26 -790 -144 -1527 -178 -2310 -105 -275 26 -491 57 -763 109 -91 18 -438
101 -590 142 -278 74 -829 267 -1031 359 -38 18 -120 54 -182 82 -326 142
-848 435 -1147 643 -422 294 -733 543 -1034 829 -572 544 -1053 1157 -1449
1846 -81 142 -322 607 -322 623 0 3 -16 41 -36 84 -68 146 -85 188 -159 378
-214 553 -362 1111 -455 1720 -116 759 -116 1597 0 2370 42 274 119 653 174
850 8 28 28 102 46 165 38 142 139 451 191 585 101 262 130 336 162 405 19 41
49 109 67 150 59 136 219 447 324 633 656 1154 1602 2143 2706 2828 597 371
1142 627 1780 837 898 296 1899 435 2820 392z"/>
<path d="M7731 11775 c-624 -1713 -1137 -3115 -1140 -3115 -3 0 -181 483 -396
1073 l-390 1072 -587 3 c-324 1 -588 0 -588 -2 0 -4 1367 -3762 1385 -3808 7
-17 44 -18 590 -18 l584 0 0 38 c-1 25 464 1314 1419 3937 781 2145 1424 3908
1427 3918 7 16 -25 17 -582 17 l-589 0 -1133 -3115z"/>
<path d="M10502 10738 c0 -16 -2732 -7540 -2817 -7760 -7 -17 25 -18 582 -18
l588 0 1124 3088 c618 1698 1126 3090 1130 3094 4 4 202 -502 441 -1125 l435
-1132 593 -3 c325 -1 592 -1 592 0 0 2 -335 874 -743 1938 l-743 1935 -591 3
-590 2 -1 -22z"/>
</g>
</svg>
